<svg width="199" height="116" viewBox="0 0 199 116" fill="none" xmlns="http://www.w3.org/2000/svg">
<path fill-rule="evenodd" clip-rule="evenodd" d="M1.4105 115.044H197.273C197.716 114.678 197.998 114.125 198 113.506L198.057 83.5057C198.059 82.4012 197.165 81.504 196.061 81.5019L159.049 81.4315C158.218 81.4299 157.491 80.8821 157.242 80.0891C156.993 79.2952 157.275 78.4231 157.958 77.9471L188.316 56.7758C189.222 56.144 189.444 54.8973 188.813 53.9913L171.652 29.384C171.02 28.478 169.774 28.2557 168.868 28.8876L138.516 50.0539C137.834 50.5299 136.92 50.4952 136.26 49.988C135.6 49.48 135.333 48.6051 135.619 47.8225L148.341 13.0751C148.721 12.0379 148.188 10.8892 147.151 10.5094L118.98 0.195138C117.943 -0.184628 116.794 0.348367 116.414 1.38559L103.728 36.034C103.422 36.8701 102.6 37.3997 101.711 37.3602C100.008 37.2846 98.2954 37.2805 96.5776 37.35C95.688 37.386 94.8683 36.8533 94.5654 36.0161L82.0119 1.3201C81.636 0.281435 80.4894 -0.255934 79.4507 0.119876L51.2404 10.3268C50.2018 10.7026 49.6644 11.8492 50.0402 12.8879L62.6258 47.6726C62.9098 48.4573 62.6374 49.3339 61.9743 49.8405C61.3115 50.3468 60.3975 50.3769 59.7152 49.8972L29.454 28.6221C28.5504 27.9868 27.3029 28.2044 26.6676 29.108L9.41356 53.6497C8.77828 54.5533 8.9958 55.8008 9.8994 56.4361L40.1751 77.7214C40.8561 78.2001 41.1358 79.0701 40.8834 79.8634C40.6314 80.6557 39.9015 81.2046 39.07 81.203L2.06091 81.1325C0.956342 81.1304 0.0592079 82.0241 0.0571045 83.1287L-2.17369e-05 113.129C-0.0017368 114.029 0.592248 114.792 1.4105 115.044Z" fill="#FB3D01"/>
</svg>
